<?xml version="1.0" encoding="utf-8"?>
<!-- Generator: Adobe Illustrator 25.2.1, SVG Export Plug-In . SVG Version: 6.00 Build 0)  -->
<svg version="1.1" id="Calque_1" xmlns="http://www.w3.org/2000/svg" xmlns:xlink="http://www.w3.org/1999/xlink" x="0px" y="0px"
	 viewBox="0 0 595.3 841.9" style="enable-background:new 0 0 595.3 841.9;" xml:space="preserve">
<style type="text/css">
	.st0{fill:none;}
	.st1{fill:none;stroke:#000000;stroke-miterlimit:10;}
</style>
<rect y="0.8" class="st0" width="595.3" height="841.1"/>
<g>
	<defs>
		<path id="SVGID_1_" d="M192,442.6l-3.1,2h-5.8l-5.3-4.3l-3.4-9.4l-2.9-14.2v-5.3l-8.9-3.1l-3.5-5.5v-2.2l-2.6-3.8v-3.8l0.8-2.3
			l-1.6-6.2l1.3-2.2l2.8-2.7h0.9l0.1-5.1l2.6-3.1l2.4-1.9l0.3-4.6l1.3-1.3h5.7l-0.6-3.3l-7.4-0.9l-2.9,1.1l-8.1,6.5l0.5,3.5v3.2
			L154,376l-3.9,7.7l-4.6,5.3l-1.1,3.2l-0.9,1.3l-0.7,2.7l-1.5,2.6l-3.1-0.4l-0.8-3.4l0.7-1.9l1.1-1.3l0.4-2.8l3-5.7l0.7-1.6
			l-0.8-3.1l1.1-2.3l1.9-4.2l0.8-2.4l2.7-2l2.6-2.6l2.4-2.6l1.9-1.9l3.8-1.9l4-0.4l4.2-0.9l4.2,1.1l2-0.3l1.3,2.3l2.2,1.5l0.5,1.5
			l0.7,0.1l3.5,0.4c0,0,0.1,0,0.8,0c0.7,0,1.8,0,1.8,0c-0.7,1.9,12.4,13.6,13.3,12.7c0.5-0.5-11.6-10-11.6-10s0.5,0.4,0.9,0.7
			c0.4,0.3,1.6,1.1,1.6,1.1l2.3,2c0.9,0.7,0,0,0,0s0.4,0,0.7,0.4c0.3,0.4-0.7-0.4,0.3,0.4s0.4,0,0.9,0.8s0.3,1,1.2,1.6
			c1.2,0.8-1.2-0.8,0,0c1.2,0.8,0.1,0.4,1.2,0.8c1.1,0.4-0.3,0.7,0.4,1.2c0.7,0.5,1.3-0.3,1.3-0.3l0.7,0.4v0.8l1.5-1.1l1.5-0.9
			l0.7-0.7v-1.3c0,0,0.7-1.3,0.5-1.8c-0.1-0.4-1.3-1.6-1.3-2.2c0-0.7-0.1-0.6-0.2-1.8c-0.1-1.2-1.8-3.4-1.8-3.4l0.6-1.5l-1.1-2.2
			l-5.5-0.9l-3.2,0.4l-2.5-1.9l-0.4-4.2l0.3-3l-0.1-2.2l-2.4,0.1l-5.3-1.5l-2.7-2.7l-1.9-3.2l-0.4-2.2H173h-1.2l-1.3,2l-0.9,0.5
			l-1.5,0.5l-1.6,0.2l-1.8,1.5c-1.3-2.3-2,0.5-2,1.5l-2.3,0.7l0,0c0,0-1.1,0.8-1.3,1.2c-0.3,0.4,0.5,0-0.3,0.4
			c-0.8,0.4-1.8,0.5-1.8,0.5l-0.9-0.7c0,0-1.3,0.7-2.2,0.7c-0.8,0-1.9,0.6-2.8-0.3c-1-0.9-1.4-1.2-2.4-0.7c-0.8,0.4,1.2,0.8-0.5-0.7
			s-1.2-1-1.2-1s-0.7-1.3-0.7-2.2c0-0.9,0,0,0-0.7c0-0.7-0.3-0.9-0.3-2c0-1.1-0.4-1.2,0.1-1.9c0.5-0.7,0.7-1.2,1.1-1.5
			c0.4-0.3,0,0,0,0s1.1-0.7,2-1.6c0.9-0.9-0.1-1.2,0.9-1.6c1.1-0.4,1.5-0.5,1.9-0.8c0.4-0.3,0.5-0.1,1.2-0.9
			c0.7-0.8,1.1-1.2,1.5-1.8c0.4-0.5-0.8,0.9,0.8-0.5c1.6-1.5,0,0,1.6-0.7s1.2-1.5,1.2-1.5s0.7-0.5,0.7-0.9c0-0.4,0-1.2,0-1.2
			l1.3-2.2l0.4-1.5c0.4-1.1,0.8-2,0.8-2l0.4-0.8c0,0-0.3-0.3,0.7-0.8c0.9-0.5,0.9-0.5,0.9-0.5s0.9,0.4,1.8,0
			c0.8-0.4,0.9,0.3,1.5-0.8c0.5-1.1,0.5-1.1,0.5-1.1l0.7-2.3c0.9-0.7,0.8-1.2,1.4-1.2c0.6,0-0.7,0.5,0.6,0c1.3-0.5,1.3-0.5,1.3-0.5
			l1.1-0.8h0.7l0.9-1.6l0.5-1.3c0,0,0.8-0.7,0.9-1.3s0.4-0.9,1.6-0.9s2.6-0.9,2.6-0.9h0.8l0.7-0.8c0,0,0.3-1.2,0.3-1.8
			c0-0.5,0-0.5,0-0.5l1.2-2c0,0,0-1.6,0.7-1.2c2.5,1.4,3-0.4,3-0.9c0-0.4,2.6,0.9,2.6,0.9l1.5,0.5l1.1,1.5c0,0,0.9,0.4,1.2,0
			c0.3-0.4,0.3-0.4,0.3-0.4s0.7-0.5,0.8-0.9c0.1-0.4,0.3-1.3,0.7-1.7c0.4-0.3,2.8-0.2,2.8-1c0-1.1-0.5-1.6-0.1-1.9
			c0.4-0.3,1.1-0.9,1.1-0.9s0.7,0.7,1.3,0c0.7-0.7,0.3-1.1,2-1.2s2.7-0.1,4.3,0s1.8-0.5,2.3-0.1c0.5,0.4,1.6,0.5,2.3,1
			c0.7,0.5,0.4,0.3,1.3,0.8c0.9,0.5-0.1-0.1,0.9,0.5s1.6,0.9,2.4,1.6c0.8,0.7,0,0,0.5,1.3c0.5,1.3,0.7,0.5,1.3,1.5s1.1,1.1,1.2,2
			s0,0.9,0,1.5s0,0.5,0,0.5l0.1,1.9c0,0,0.3,1.9,0,0.7c-0.4-1.6-0.3-2.6-0.5,1.9c0,0.6-0.7,2.2-0.7,2.2l-0.9,2.7l-1.5,1.5l-1.2,1.2
			l-1.3,0.5c0,0-2.2,1.8-3,1.8s-1.2-0.5-1.5-0.1c-0.3,0.4-1.6,0.7-1.6,0.7s0.3,3.4,0.3,3.9c0,0.5-0.5,1.8-0.5,2.2
			c0,0.4,0.3,3.9,0.3,4.4c0,0.5,0,4,0.3,4.4c0.3,0.4,0.5,2.3,0.5,2.3l1.9,0c0,0,1.1-0.7,1.9-0.5c0.8,0.1,2.2,0.9,2.2,0.9
			s0.5,1.2,0.8,1.8c0.3,0.5,0.5-0.1,0.5,0.9s0.8,6.7,0.9,7.4c0.1,0.7,1.2,2,1.2,2l12.1,8.5l2.2-0.5l2.8-24.1l4.6-12.8l3.2-5.5
			l0.7-15.4l4.2-11.4l-5.7,3.2l-3.5-1.3l-1.8-2.3c0,0-0.3-5.3-0.1-5.9c0.1-0.7,0.4-5.8,0.4-5.8s0.7-4.5,1.5-5
			c1.7-1.1,7.4-10,5.4-6.5c0,0,1.7-3.2,2-3.5c0.9-0.8-0.5-5.3-0.5-5.3l-5.4,0.1l-1.6-0.8c0,0-0.4-2-0.3-2.4c0.1-0.4-0.3-2.3-0.1-2.7
			c0.1-0.4,1.6-2.8,1.6-2.8s3.6-4.7,3.9-5.2c0.3-0.5-0.6-0.7-0.6-0.7l4.3-1.6l1.7-0.9l1.6-0.1l9.8,0.2l2.6,0.4l0,0l0.9-0.9l1.6-2.3
			l1.2-5.8l0.4-2l1.5-3.5l0.4-2.4l1.6-2.8l1.9-3.4l2.2-3.1l12.8-9.2l3.8-1.9l2.8-1.3l4.2-0.7l3.1-1.2h2l1.1-1.8c0,0,1.8,0.4,2.4,0
			c0.7-0.4,0.9,0.5,2.2,0c1.2-0.5,1.5,0.1,2-0.1c0.5-0.2,1.5,0.2,1.9,0.5c0.4,0.3,0,1.6,0,1.6s0.4-0.8,0.8-0.4c0.4,0.4,2,0.8,2,0.8
			l1.9,0.8l1.3,0.7l1.3,0.7l1.1,0.4l0.7,0.8l1.2,0.3l1.2,0.5l0.8,0.5l0.7,0.1l0.8,0.4l1.9,0.5v1.1l0.8,0.3l0.9,0.8l1.5,0.9l0.7,0.7
			l0.9,1.1c0,0,0.5,0.4,0.8,0.8s0.3,0.4,0.3,0.4l0,0l0.7,0.3c0,0-1.1-0.1,0,0.8c1.1,0.9,1.1,0.9,1.1,0.9s0.9-1.3,0.7-0.7
			c-0.3,0.7,1.5,2.7,1.5,2.7l0.7,0.9l0.9,1.2c0,0,0,0.9,0.5,1.5c0.5,0.5,0.1-0.3,0.5,0.5c0.4,0.8,0.4,0.8,0.4,0.8l0.9,0.5l0.8,0.8
			l0.8,1.1c0,0,0.4,1.1,0.7,1.5c0.3,0.4,0.9,1.5,0.9,1.5l0.7,0.7v1.1l1.1,1.1l0.7,2.2c0,0-0.4,0.3,0,0.7c0.4,0.4,1.1,1.1,1.1,1.1v2
			v3.9l1.1,0.1c0,0,0.8-0.8,1.3-0.8c0.5,0,1.5-0.4,1.9-0.4c0.4,0,0.8-0.3,1.3-0.3c0.5,0,2.3,0,3.4,0.1c1.1,0.1,2-0.1,2.6,0.1
			c0.5,0.3-0.4-0.1,0.5,0.3s-0.1-0.1,0.9,0.4s1.8,1.1,1.8,1.1l0.8,0.3l2,1.3l0.9,1.6c0,0,0.4,0.1,0.7,0.7c0.3,0.5-0.1-0.3,0.3,0.5
			c0.4,0.8,0.1,0.7,1.1,1.6s0.8,1.6,1.2,2.4c0.4,0.8,0.4,0.8,0.4,0.8l0.9,2v2.7c0,0,0.7,1.2,0.9,1.6c0.3,0.4-0.5,0.5,0,0.9
			c0.5,0.4,0.9,1.5,1.1,2s-0.3,0.5,0,1.2s-1,0.5,0,1.8c1.1,1.2,1.2,2,1.2,2s0.3,0.9,0,1.5c-0.3,0.5-0.5,0.7-0.5,1.3
			c0,0.7-0.3,0.9-0.3,1.3c0,0.4-0.4,0.9-0.7,1.3c-0.3,0.4-2,0.5-2,0.5s-0.5-0.4-1.1,0c-0.5,0.4-0.1-0.3-1.6,0.7s-1.9,0.4-2.2,1.1
			c-0.3,0.7-0.3,1.3-0.1,2c0.1,0.7,0.1,1.5,0.1,1.5s-0.3-0.8-0.1,0.8c0.1,1.6,0.5,1.8,0.8,2.3c0.3,0.5,0.3,0.5,0.3,0.5l1.2,2.2
			l0.4,0.7c0,0,0,0,0.3,0.9s0.3,0.1,0.3,0.9s0.1,0.8,0,1.6s-0.1,0.8-0.4,1.5s-1.1,0.9-1.3,1.3c-0.3,0.4,0.3-0.8-0.3,0.4
			s-0.7,2.2-0.7,2.2s0.4,0.1-0.4,0.8c-0.8,0.7-0.5-0.8-0.8,0.7c-0.3,1.5-0.4,1.8-0.3,3c0.1,1.2,0.7-3.4,0.1,1.2
			c-0.5,4.6-0.5,3.8-0.5,4.6s0,0.4,0.7,1.5s0.3-0.4,0.7,1.1c0.4,1.5-0.1-0.4,0.4,1.5s0.1,1.5,0.5,2.6c0.4,1.1,0.7,0.5,0.4,1.9
			c-0.3,1.3-0.5,1.5-0.5,2c0,0.5,0.5-1.3,0,0.5c-0.5,1.9-0.8,1.9-0.9,2.6c-0.1,0.7-0.1,0.7-0.1,0.7l1.5,1.3c0,0,0,1.6,0.4,2.3
			c0.4,0.7,0.3,0,1.1,1.1c0.8,1.1,0.8,1.3,1.5,2.2c0.7,0.8,0.3-0.7,0.7,0.8c0.4,1.5-0.1,0.9,0.5,2.3c0.7,1.3,0.1,0.3,0.9,2.7
			s1.1,3.5,1.1,3.5s-0.1,0.7,0,1.1c0.1,0.4,0.1,1.2,0.4,1.9c0.3,0.7,0-0.1,0.3,0.7s0.2,0.5,0.5,1.6c0.3,1.1-0.1,1.9,0,2.4
			s0.3-0.4,0.1,0.5c-0.1,0.9-0.2-0.4,0.1,1.6c0.2,2-0.3,2.2,0,2.7c0.3,0.5,0.3-1.2,0.3,0.5s-0.8,1.8,0,4.3s0.9,2.6,1.1,3.5
			c0.1,0.9,0.1,0.9,0.1,0.9s0.4,0.5,0.9,0.1c0.5-0.4,1.3-1.3,1.3-1.3s0,0.1,1.3-0.8c1.3-0.9,2.6-1.9,2.6-1.9l1.3-0.9
			c0,0,0.7-0.5,1.2-0.9c0.5-0.4,1.1-0.8,1.5-1.1c0.4-0.3-0.5,0.4,0.4-0.3s0.9-0.7,0.9-0.7s0.5,0.1,0.7-1.1c0.1-1.2-0.3-2.2,0-2.6
			c0.3-0.4-0.2-0.3,0-1.2c0.2-0.9,0-0.9,0.6-1.8s0.8-1.2,1.2-1.8c0.4-0.5-0.3-0.1,0.4-0.5c0.7-0.4,0.1-0.3,1.5-0.7
			c1.3-0.4,1.1-0.5,1.9-0.5s0.8,0,0.8,0h0.8c0,0,0.5,0.4,0.8-0.5c0.3-0.9,0.3-0.9,0.3-0.9s-0.9,0,0-0.7s1.6-1.1,1.8-1.5
			c0.1-0.4,0.1-0.4,0-1.9s-0.1-1.5-0.1-1.5l-0.8-1.1c0,0-0.7-0.4-0.5-0.8c0.1-0.4,0.1-1.1,0.1-1.1s0-0.1,0-1.1s0-0.9,0-0.9
			s-0.7-1.6-0.1-1.9c0.5-0.3,0.5-0.3,0.5-0.3l1-0.4c0,0,0.4-0.3,0-1.1s0.2-1.6,0.2-1.6v-0.9c0,0-0.3,0,1.1-0.7
			c1.3-0.7,1.3-0.7,1.3-0.7s0.3-0.9,0-1.5s-0.8-0.7-0.9-1.3c-0.1-0.7,0.3-0.4-0.1-1.3c-0.4-0.9-0.5-1.2-0.5-1.6s0-0.5,0-1.1
			c0-0.5,0.3,0.8,0-0.5c-0.3-1.3-0.5-1.6-0.7-2c-0.1-0.4-0.3-1.9-0.3-1.9s0.5-1.2,0.1-1.8c-0.4-0.5,0.1,0.4-0.4-0.5
			c-0.5-0.9-0.5-1.1-0.5-1.9s0-1.6,0-1.6s0.1-0.9,0.7-0.9c0.5,0,2.4-0.5,2.8-0.7c0.4-0.1,0-0.8,0-0.8s-0.1-0.4-0.7-0.8
			c-0.5-0.4-0.9-0.1-1.3-0.5c-0.4-0.4-0.7-0.4-0.8-1.1s-0.1-1.9-0.1-1.9l0.8-0.7c0,0,0.1-0.4,1.6-0.1c1.5,0.3,0.5,0,1.5,0.3
			c0.9,0.3,0.9,0.3,0.9,0.3l1.6,0.5c0,0-0.4-0.8-1.3-1.3c-0.9-0.5-2.8-1.2-2.8-1.2l-0.1-1.2c0,0-0.5,0.5,0.3-1.3s0.8-1.9,0.8-1.9
			s0.7-1.6,0.8-2.3c0.1-0.7,0.1-0.7,0.1-0.7s-0.1-0.3,0.1-0.8c0.3-0.5,0-0.8,0.8-1.6s1.3-1.3,1.3-1.3s0-0.1,0.5-0.8
			c0.5-0.7,0-0.4,1.1-1.5c1.1-1.1-0.1,0.1,1.1-1.1c1.2-1.2,0.4-0.4,1.2-1.2s0.5-0.7,1.3-1.2c0.8-0.5,0.4-0.4,1.6-1.2
			c1.2-0.8,1.3-0.8,1.9-1.2c0.5-0.4,0.3-0.3,1.5-0.9c1.2-0.7,0.9-0.5,1.9-1.1c0.9-0.5,1.1-0.7,1.5-0.8c0.4-0.1,0.3-0.4,1.1-0.7
			c0.8-0.3,0,0,0.8-0.3s0.8-0.5,1.8-0.8c0.9-0.3,0.9-0.4,2-0.5c1.1-0.1,1.1-0.3,2-0.4s0.9-0.4,2.2-0.4c1.2,0,0,0,1.9-0.1
			c1.9-0.1,0.4-0.1,1.9-0.1s2.4,0,2.8,0c0.4,0,0.4,0,0.4,0l10.5,1.8l2.3,0.7l3.5,1.8c0,0,1.6,0.5,2.4,1.2c0.8,0.7,3.2,2.6,3.2,2.6
			s2.2,1.9,2.6,2.2c0.4,0.3,7.3,7.8,7.3,7.8l3.5,6.1l2.8,8.2v1.3v1.5l-6.1,0.4l0.4,0.7l2.2,0.1l2.4,0.5l1.1,0.3c0,0,0.4,0.8,0.5,1.3
			c0.1,0.5,0,1.8,0,1.8s-0.4-0.7,0.1,0.8s-0.3,2.6,0,3.5c0.3,0.9-1.1,10.4-1.1,10.4l-2,5.1l-4.4,5.5l-4.2,3.9l-6.1,3.9l-3.1,1.2
			l-6.2,2.2l-5.1,0.4l-6.9-0.5l-1.6-0.1l0.1,1.9c0,0-0.7,1.2-1.2,1.6c-0.5,0.4-1.3,1.5-1.8,1.8c-0.4,0.3-1.5,1.1-2.7,1.6
			c-1.2,0.5-3.1,1.2-3.1,1.2l-3.5,1.9l-2.4,0.9l-1.3,1.2l0.9,1.3l0.8,2.7c0,0-0.3,2.3-0.7,2.7c-0.4,0.4-2.2,1.8-3,2.2
			c-0.8,0.4-5,0.7-5.7,0.8s-3.9,0.1-3.9,0.1l-1.3,1.8l-3.1,4.6l-12,14.4l1.6,1.3c0,0,0.7,0.1,1.2,0.3c0.5,0.1,1.6,0.3,2.2,0.1
			c0.5-0.1,1.9-0.1,1.9-0.1l0.9-0.1c0,0,0.3-0.7,0.5-1.1c0.3-0.4,1.2-0.3,1.3-0.8c0.1-0.5,1.2-1.3,1.2-1.3l1.5-0.8
			c0,0,0.4-0.4,0.7-0.9c0.3-0.5,0.3-0.5,0.3-0.5s1.6-0.8,2-0.8c0.4,0,1.2-0.1,1.2-0.1s0.5-0.3,0.9,0.1c0.4,0.4-0.3-0.7,0.4,0.4
			s0.5,1.2,0.8,1.9c0.3,0.7,0,1.5,0,2.2s-0.1,1.3-0.1,1.3s0.1,0.8,1.3,0.5c1.2-0.3,0.5,0,1.2-0.3c0.7-0.3-0.5,0.9,0.7-0.3
			c1.2-1.2,1.6-1.3,1.6-2s-0.4-0.9,0-1.8c0.4-0.8,0.1-1.2,0.9-2.3c0.8-1.1,0.8-0.8,1.5-2.2c0.7-1.3,0.9-1.9,1.5-2.7
			c0.5-0.8,0.5-0.8,1.1-1.2c0.5-0.4,2.2-1.5,2.2-1.5l1.6-0.8c0,0,0.3-0.7,2.3-0.9c2-0.3,2.8-0.4,2.8-0.4s0.5-0.9,0.7-1.9
			c0.1-0.9-0.1-1.2,0.3-2.6c0.4-1.3,0.4-1.3,0.8-2.6c0.4-1.2-0.3-0.7,1.1-2.7c1.3-2,0.8-1.2,1.3-2c0.5-0.8,0.5-1.2,1.2-1.8
			c0.7-0.5,1.2-0.8,2-2c0.8-1.2,0.7-1.1,1.3-1.9s0.1-1.1,2-2c1.9-0.9,0.8-0.5,3.5-1.6c2.7-1.1,1.5-0.7,3.6-1.3
			c2.2-0.7,2.5-1.6,4.3-1.1c0.9,0.3,1.8,0.3,2.3,0.3c0.5,0,0.4-0.4,1.6,0c1.2,0.4,1.2,0.4,1.2,0.4s0.5,0.1,1.1,0.5
			c0.5,0.4,1.3,0.7,2.3,0.8s0.9,0.1,0.9,0.1s1.1,0.4,1.9,0.5s-0.1-0.5,0.8,0.1s2.3,1.6,2.4,2c0.1,0.4,0.5,1.2,0.5,1.2
			s0.8,0.8,1.5,1.2c0.7,0.4,0.8,0.4,1.3,0.8c0.5,0.4-0.4-0.7,0.5,0.4c0.9,1.1,0.4,0.1,0.9,1.1c0.5,0.9,0.5,0.8,0.7,2
			c0.1,1.2-0.1,0,0.1,1.2c0.3,1.2-0.8,0.4,0.3,1.2c1.1,0.8,1.2,0.9,1.9,1.3c0.7,0.4-0.5-0.4,0.7,0.4c1.2,0.8,1,0.5,2.1,1.5
			s1,0.9,1.5,1.2c0.5,0.3-0.1-1.1,0.5,0.3c0.7,1.3-0.5,0,0.7,1.3c1.2,1.3,0.9,1.5,1.6,2.2c0.7,0.7-0.4-0.5,0.7,0.7
			c1.1,1.2,0.7,2.6,0.9,3c0.3,0.4,0,0.7-0.7,0.9c-0.7,0.3,0,0.4-1.9,0.3s-1.9-0.1-1.9-0.1l-1.2-1.3c0,0-0.4-0.7-0.8-0.9
			c-0.4-0.3-2-1.2-2-1.2l-1.5-0.9c0,0,0.1,0.1-0.9-1.1c-1.1-1.2-1.1-1.2-1.1-1.2l-1.2-0.8c0,0-0.9-0.1-0.8-0.8
			c0.1-0.7,0.1-0.7,0.1-0.7s-0.8-1.1-1.5-1.1s-1.2,0.4-2,0.3s-1.1-0.3-1.8-0.8c-0.7-0.5-1.9-1.5-1.9-1.5s-0.9-0.8-1.3-1.5
			c-0.4-0.7,0.3,0.1-0.4-0.7c-0.7-0.8-1.3-1.3-1.3-1.3l-0.7-1.1l-0.5-0.8c0,0-0.5-0.5-0.8-1.1c-0.3-0.5-0.5-0.9-0.5-1.3
			c0-0.4,0-0.4,0-0.4v-1.2c0,0-0.9-0.5-1.3-0.5c-0.4,0-0.5-0.3-1.2-0.3s0.8-0.5-2.8-0.3c-3.6,0.3-3.6,0.3-3.6,0.3l-2.7,1.3l-4.6,3.6
			l-4.7,6.9l-1.1,3.2l-0.5,1.1l3.1-2.2c0,0,1.3-0.9,1.8-1.2c0.4-0.3,0.3-1.2,1.3-1.2c1.1,0,3.8-0.5,3.8-0.5s2.2-0.1,3-0.1
			s1.2,0,2.2,0s2.2,0,2.2,0s1.1-0.1,1.9,0s2.2,0.7,2.2,0.7l2,1.9c1.5,1.3,1.5,1.3,1.5,1.3s0.4,0.4,0.9,1.3c0.5,0.9-0.7-0.3,0.5,0.9
			c1.2,1.2,0.5-0.1,1.3,1.9c0.8,2,0.3,1.8,0.8,2.6c0.5,0.8,1.3-0.3,1.9,0.9c0.5,1.2-0.1-0.1,0.5,1.2c0.7,1.3,0.1,0.4,0.8,2.3
			c0.7,1.9,0.7,2.7,0.8,3.2c0.1,0.5-0.4-0.8,0.1,0.5c0.5,1.3,0.3-1.2,0.5,1.3c0.3,2.6,0.3,3,0.4,4s0.4,0,0.1,1.1
			c-0.3,1.1-0.3,1.1-0.3,1.1s-0.3,0.3-0.7,0.8c-0.4,0.5-0.4,0.5-0.4,0.5s-0.7,0.1,0,1.2c0.7,1.1,0.5-0.5,0.7,1.1s-0.1,1.5,0.3,2.6
			c0.4,1.1,0.7,0.4,0.9,1.6c0.3,1.2,0,0.9,0.3,2.3c0.3,1.3,0.1,0.4,0.4,2c0.3,1.6,0.1,1.6,0.3,2.4c0.1,0.8,0.8,1.1-0.3,1.8
			c-1.1,0.7,0,0.4-1.1,0.7c-1.1,0.3-1.5,0.3-2-0.4c-0.5-0.7-0.5-0.8-1.1-1.5c-0.5-0.7-0.1,1.9-0.5-0.7c-0.4-2.6-0.8-1.5-0.4-2.6
			c0.4-1.1,1.1,0,0.4-1.1s-0.3,0-1.5-2s-0.9-0.7-1.2-2c-0.3-1.3-0.4-0.8-0.3-2c0.1-1.2,0.1-1.2,0.1-1.2s1.3,0.3-0.8-1.5
			c-2.2-1.8-2.2-1.8-2.2-1.8s-0.5-2.6-0.9-3.2c-0.4-0.7,0,0-0.4-0.7c-0.4-0.7-0.7-0.8-0.7-1.6c0-0.8-0.3-0.7-0.3-1.5s0-1.6,0-2.6
			s-0.4-1.3-0.1-2.3s0.3-1.1,0.8-1.6c0.5-0.5,1.5-0.7,1.1-1.3c-0.4-0.7-0.5-0.7-1.1-1.6s-0.5-1.1-1.3-2.3c-0.8-1.2,0.1-0.4-0.8-1.2
			c-0.9-0.8-0.9-0.8-1.6-1.3c-0.7-0.5-0.1-0.4-1.5-0.7c-1.3-0.3-1.3-0.4-3.2-0.8c-1.9-0.4,2.3-1.2-2.6-0.5c-4.9,0.7-4,0-4.9,0.7
			c-0.8,0.7-1.3,1.6-1.3,1.6s1.3,0.3,2,0.4c0.7,0.1-1.1-0.5,0.7,0.1s1.2-0.5,1.8,0.7c0.5,1.2,0.5,1.5,0,2c-0.5,0.5-0.9,1.1-0.9,1.6
			s0,0.5,0,0.5l0.5,2.3c1.8,0.1,1.8,0.1,1.8,0.1s1.1,0,1.6,0.4c0.5,0.4,1.9,0.9,1.9,0.9l0.4,0.9c0.3,0.8,0.8,1.3,0.8,2
			c0,0.7-0.1,0.5-0.3,1.2s-0.4,1.3-0.4,1.3s-0.3,0.7-0.4,1.3s-0.1,0.7-0.1,0.7s1.6,0.1,2.2,0.3c0.5,0.1-0.9-0.5,0.5,0.1
			c1.5,0.7,1.5,0.7,1.5,0.7l0,0l0.7,0.5c0,0-0.1-0.1,0.3,0.7c0.4,0.8,0.5,0.8,0.7,1.5c0.1,0.7-0.1,0.4,0,1.3
			c0.1,0.9,0.4,0.9,0.1,1.8c-0.3,0.8-0.1,0.7-0.4,1.5c-0.3,0.8-0.3,0.8-0.3,0.8l-0.5,0.9l1.2,0.4l1.1,0.8l0.8,0.8c0,0,0,1.6,0,2.2
			c0,0.5-0.4-0.4,0,0.5c0.4,0.9,0.8,1.9,0.8,1.9v0.7c0,0-1.2,0.5-1.6,0.8s0.4-0.9-0.4,0.3c-0.8,1.2-0.9,1.1-1.8,1.9
			c-0.8,0.8,0,0.5-0.8,0.8c-0.8,0.3-0.8,0.3-0.8,0.3s0.7,0.4,0.7,1.1s-0.1-0.3,0,0.7c0.1,0.9,0,1.1-0.1,1.6
			c-0.1,0.5-0.1,0.5-0.1,0.5l0,0l-1.2,3.4c0,0-0.4-0.3-0.7,0.1c-0.3,0.4-1.9,1.3-2.8,1.6c-0.9,0.3,0.4,0.1-1.6,0.7
			c-2,0.5-3.4,0.8-3.4,0.8l-2.2-0.1c0,0,0,0.8-0.1,1.3c-0.1,0.5-0.5,2.6-0.3,3.4c0.3,0.9,0.4,0,0.3,2.1c-0.1,2.1,0,1.8-0.5,3.9
			c-0.5,2.2-0.7,2.2-0.7,3s-0.1,0.4,0,1.8c0,0-0.7,1.1-0.5,1.6s0,2.4,0,2.4s-1.1,2.3-1.1,2.7s-1.1,2.8-1.2,3.4
			c-0.1,0.5-0.5,1.3-1.5,2.8c-0.9,1.5-0.9,1.5-0.9,1.5s-0.9,0.8-1.6,0.9c-0.7,0.1-0.8,0.8-0.8,0.8l-2.3,0.4c0,0-0.4,0.1-1.5,0
			c-1.1-0.1-2-0.4-2.4-0.5c-0.4-0.1-0.1-0.1-0.9-0.4c-0.8-0.3-1.9-1.1-1.9-1.1s-1.5-0.4-2.2-0.3c-0.7,0.1-1.9,0.1-2.3,0.1
			c-0.4,0-2.4-0.3-3-0.4c-0.5-0.1-1.2-0.5-1.2-0.5s-1.3,0-1.8-0.5c-0.4-0.5-0.4-0.4-0.8-1.2c-0.4-0.8-0.5-0.8-0.8-1.5
			s-0.5-0.4-0.9-1.5c-0.4-1.1-0.5-1.3-1.1-2.7c-0.5-1.3-0.4-1.2-1.1-2.4c-0.7-1.2-0.8-0.9-1.2-2c-0.4-1.1-0.5-1.8-0.8-2.3
			c-0.3-0.5-0.5-1.2-0.5-1.2s-0.1-0.7-0.8-0.8c-0.7-0.1-1.6-0.5-2.2-0.5s-0.9-0.3-1.3,0.3c-0.4,0.5,0.4-0.5-0.4,0.5
			c-0.8,1.1,0.1,0.3-1.5,1.5s-2.2,1.8-2.2,1.8l-0.7,1.8c0,0-0.5,0.1-1.1,0.8c-0.5,0.7-0.5,0.7-0.5,0.7l1.1,0.9c0,0,0.3,0,1.2,0.4
			c0.9,0.4,0.3-0.1,0.9,0.4s-0.7-0.7,0.7,0.5c1.3,1.2,0.8,1.2,1.9,1.3s1.1,0.1,1.1,0.1s-0.5-0.3,0.9,0.5c0.4,0.2,0.7,0.4,1,0.5
			c0.5,0.3,0.5,0.3,0.5,0.3l-0.1,0.7c0,0-0.1,0.8,1.2,0.8c1.3,0,1.3,0,1.3,0s-0.3,0.5,0.3,0.7c0.5,0.1,0.7-0.1,1.2,0.1
			c0.5,0.3-0.8-0.3,0.5,0.3c1.3,0.5,1.5,0.4,1.9,0.7c0.4,0.3,0.9,0.7,0.9,0.7s0.1,0,0.5,0.7c0.4,0.7,0.1-0.4,0.4,0.7
			c0.3,1.1,0,1.3,0.3,1.9c0.3,0.5,0,0.7,0.5,1.1c0.5,0.4-0.9-0.4,1.2,0.7c2.2,1.1,2.2,1.1,2.2,1.1s-0.1-0.1,0.3,0.7
			c0.4,0.8,0-0.3,0.4,0.8c0.4,1.1,0.5,0.7,0.8,2.2c0.3,1.5,0.5,0.5,0.3,1.5c-0.3,0.9,0.4,0.1-0.3,0.9c-0.7,0.8-0.7,0.8-0.7,0.8
			s-0.7-1.3,0,0c0.7,1.3-0.4,0.3,0.7,1.3s0,0.3,1.1,1.1c1.1,0.8-0.3-0.7,1.1,0.8c1.3,1.5,1.1,1.2,1.9,1.8c0.8,0.5,0.7,0,1.5,0.7
			s0.1-0.1,0.8,0.7c0.7,0.8-0.9-1.1,0.7,0.8s0.7,1.6,2.2,2c1.5,0.4,0.8,0.3,1.5,0.4c0.7,0.1-1.6-0.4,0.7,0.1
			c2.3,0.5,1.5,0.1,2.8,0.5c1.3,0.4,1.1,0.9,3.8,1.3c2.7,0.4,1.7-1.6,2.5-1.2c0.8,0.4-1.4-0.4,2.2,0.6c2.6,0.7,1.4-0.2,4.2,0
			c2.1,0.2,2.2-0.2,3.1,0.1c0.9,0.3-1.2,0.7,0.9,0.3c2.2-0.4-0.7-0.3,2.2-0.4c2.8-0.1,3.1,0,4.3-0.1c1.2-0.1-1.1-0.1,1.2-0.1
			s5.7-1.2,3.6,0c-3.1,1.8,0.9,0.9,1.6,1c0.6,0,2.4,2,2.1,1.5c-0.3-0.5-0.4,0,0.3,0.5c0.7,0.5-0.2,0.8,0.1,1.8
			c0.3,0.9,1.3,0.3,1.3,0.3l0.4,1.6l0.5,1.8l0,0c0,0,2.3,1.2,2.3,1.8c0,0.5,0,0.4,0.1,1.6c0.1,1.2,0.3,0.7,0.1,2.3s-0.3,3.2-0.3,4.7
			s0.1,0.8,0,2.2c-0.1,1.3-0.4-1.8-1.1-0.4c-0.7,1.3-0.8,4.6-1.8,5.5s-0.7,0.5-1.6,1.6s-1.2,1.2-2.6,2.3c-1.3,1.1-2.2,1.3-2.6,1.9
			c-0.4,0.5-0.7-0.1-0.4,0.5c0.3,0.7,0.3,0.7,0.3,0.7s-0.4-0.3,0.8,0.8c1.2,1.1,0.3,0.8,2,1.9c1.8,1.1,0.8,0.9,2.7,1.3
			c1.9,0.4,1.5,0,3.1,0.8s0.9,0.1,3.1,1.5c3,2,4,1.9,4.6,2.4c1.4,1.1,2.4,1.8,2.8,2.7c0.4,0.9,0,0.4,0.4,1.8
			c0.4,1.3,0.8-0.5,0.4,2.7c-0.4,3.2,0.3,1.1-0.4,3.2c-0.7,2.2-0.7,0.8-0.7,2.2c0,1.3,0-0.8,0.1,2.2s0.1,3.9,0.1,3.9v1.3
			c0,0,0.7,0.9-0.1,1.3s0.9,0.1-1.5,0.8c-2.4,0.7-3.2,0.7-3.8,1.1c-0.5,0.4-0.7,0.5-0.7,1.3c0,0.8,0-0.3,0,1.9
			c0,2.2,0.3,1.2,0.3,1.2s-0.1,2.7-0.1,3.1c0,0.4,0.2-1.2,0,0.4c-0.2,1.6-1.1,32.6-0.7,32.6l-0.9,4.3l-2.1,3.5l-41.3,17.2l-3.3,0.9
			l-3.1-0.2L391,580.2l-7,9.6l-26.9,2c-0.3-0.4-5.1,4.6-3.6,3.8c3.9-2.3-20,11.6-20.8,12.2l-14.2,4.4l-21.1-0.2l-4.3-2.2l-10.6-4.7
			l-11.7-10.5l-2.4-1.8l-13.8,8.2l-12.3-0.2l-12.8-9.8l-4.8-7.7L190.1,596l-7.2-1l-36.1-17.9l-1.1-2.2l-1.7-6.1l-0.3-50.8l-2.2-3.4
			l0.4-8.9l7.9-4.5l-3.5-3.3l-4.3-9.2l0.6-5.6l7.8-6.5L147,477l2.3,0.5l1.3-1.2l-2.2-8.5l2.3-12.3l5.1-4.6l0.7-0.4l10.9,0.3l7.3,6.1
			l10.4-1.3"/>
	</defs>
	<clipPath id="SVGID_2_">
		<use xlink:href="#SVGID_1_"  style="overflow:visible;"/>
	</clipPath>
	<g style="clip-path:url(#SVGID_2_);">
		<image style="overflow:visible;" width="363" height="450" xlink:href="fond.jpg"  transform="matrix(1 0 0 1 125.443 177.9078)">
		</image>
	</g>
</g>
<path class="st1" d="M203.8,557.1"/>
<polygon class="st1" points="209.2,553.7 210.1,553.7 211.3,577.6 203.8,586.6 200.9,587.7 189.1,587.7 183.3,579.9 201.3,570 
	203.8,564.9 203.8,557.1 "/>
<polygon class="st1" points="181.9,583.1 184.2,592.1 194.3,599.7 197.3,600.8 208.2,600.8 219,594 219,591.9 213.7,591.9 
	212.8,590.1 212,582.4 201.1,590.3 200.5,591.6 191.9,591.6 "/>
<polyline class="st1" points="229.5,594 236.4,594 247,600.8 252,602.3 267.3,601.4 274.8,598.9 282.9,593.2 304.8,593.2 
	293.7,601.6 283.9,606.3 273.3,609.5 252.6,609.5 239.1,604.1 228.7,594.6 "/>
<polygon class="st1" points="240,593.2 276.6,593.2 269.7,597 265.9,597.9 261.3,599.3 254.9,599.8 "/>
<path class="st1" d="M421.7,574.9"/>
<g>
</g>
<g>
</g>
<g>
</g>
<g>
</g>
<g>
</g>
<g>
</g>
</svg>
